<?xml version="1.0" standalone="yes"?>
<svg xmlns="http://www.w3.org/2000/svg" width="512" height="512">
<path style="fill:#010101; stroke:none;" d="M0 0L0 115L1 115C10.3154 102.094 39.0131 103.016 40 122C49.2913 122 65.632 118.844 74 123.028C83.0114 127.533 87.459 139.879 97 143.397C105.486 146.526 116.165 142.52 124.999 144.344C129.849 145.346 134.771 151.308 128.852 154.821C122.233 158.75 96.109 158.004 90 153.566C82.4891 148.11 77.3528 138.204 69 134.028C61.7052 130.38 48.0712 133 40 133C39.0131 151.984 10.3154 152.906 1 140L0 140L0 196L1 196C10.0094 183.511 38.1067 183.635 40 202C50.1957 202 64.5075 199.435 74 203.533C82.2602 207.1 88.2642 216.285 97 218.57C105.513 220.797 115.287 218.133 124 219.109C128.732 219.639 134.737 224.817 129.566 229.258C126.09 232.242 119.235 231 115 231C108.132 231 98.3614 232.752 92 229.86C83.9713 226.21 78.3475 217.709 70 214.728C61.5487 211.709 48.9324 214 40 214C39.0023 232.448 8.67269 234.656 1 220L0 220L0 372L1 372C10.3153 359.094 39.0131 360.016 40 379C48.0712 379 61.7052 381.62 69 377.972C77.3528 373.796 82.4891 363.89 90 358.434C96.109 353.996 122.233 353.25 128.852 357.179C134.771 360.692 129.849 366.654 124.999 367.656C116.165 369.48 105.486 365.475 97 368.603C87.4589 372.121 83.0115 384.466 74 388.972C65.632 393.156 49.2913 390 40 390C39.0131 408.984 10.3154 409.906 1 397L0 397L0 512L115 512L115 511C102.094 501.685 103.016 472.987 122 472C122 462.709 118.844 446.368 123.028 438C127.534 428.989 139.879 424.541 143.397 415C146.525 406.514 142.52 395.835 144.344 387.001C145.346 382.151 151.308 377.229 154.821 383.148C158.75 389.767 158.004 415.891 153.566 422C148.11 429.511 138.204 434.647 134.028 443C130.38 450.295 133 463.929 133 472C151.984 472.987 152.906 501.685 140 511L140 512L196 512L196 511C183.511 501.991 183.635 473.893 202 472C202 462.172 199.48 448.249 202.995 439C206.357 430.149 216.175 424.155 218.57 415C220.797 406.487 218.133 396.713 219.109 388C219.626 383.38 224.882 377.061 229.258 382.319C232.223 385.881 231 392.703 231 397C231 403.868 232.752 413.639 229.86 420C226.21 428.029 217.709 433.652 214.728 442C211.709 450.451 214 463.068 214 472C232.512 472.962 234.713 503.298 220 511L220 512L372 512L372 511C359.094 501.685 360.016 472.987 379 472C379 463.929 381.62 450.295 377.972 443C373.796 434.647 363.89 429.511 358.434 422C353.996 415.891 353.25 389.767 357.179 383.148C360.692 377.229 366.654 382.151 367.656 387.001C369.48 395.835 365.475 406.514 368.603 415C372.121 424.541 384.467 428.989 388.972 438C393.156 446.368 390 462.709 390 472C408.984 472.987 409.906 501.685 397 511L397 512L512 512L512 397L511 397C501.685 409.906 472.987 408.984 472 390C462.709 390 446.368 393.156 438 388.972C428.989 384.466 424.541 372.121 415 368.603C406.514 365.475 395.835 369.48 387.001 367.656C382.151 366.654 377.229 360.692 383.148 357.179C389.767 353.25 415.891 353.996 422 358.434C429.511 363.89 434.647 373.796 443 377.972C450.295 381.62 463.929 379 472 379C472.987 360.016 501.685 359.094 511 372L512 372L512 316L511 316C501.991 328.489 473.893 328.365 472 310C461.804 310 447.492 312.565 438 308.467C429.74 304.9 423.736 295.715 415 293.43C406.487 291.203 396.712 293.867 388 292.891C383.268 292.361 377.263 287.183 382.434 282.742C385.91 279.758 392.765 281 397 281C403.868 281 413.639 279.248 420 282.14C428.029 285.79 433.652 294.291 442 297.272C450.451 300.291 463.068 298 472 298C472.958 279.568 503.311 277.312 511 292L512 292L512 140L511 140C501.685 152.906 472.987 151.984 472 133C463.929 133 450.295 130.38 443 134.028C434.647 138.204 429.511 148.11 422 153.566C415.891 158.004 389.767 158.75 383.148 154.821C377.229 151.308 382.151 145.346 387.001 144.344C395.835 142.52 406.514 146.526 415 143.397C424.541 139.879 428.989 127.533 438 123.028C446.368 118.844 462.709 122 472 122C472.987 103.016 501.685 102.094 511 115L512 115L512 0L397 0L397 1C409.906 10.3154 408.984 39.0131 390 40C390 49.2913 393.156 65.632 388.972 74C384.467 83.0114 372.121 87.459 368.603 97C365.474 105.486 369.48 116.165 367.656 124.999C366.654 129.849 360.692 134.771 357.179 128.852C353.25 122.233 353.996 96.109 358.434 90C363.89 82.489 373.796 77.3528 377.972 69C381.62 61.7052 379 48.0712 379 40C360.016 39.0131 359.094 10.3154 372 1L372 0L316 0L316 1C328.489 10.0094 328.365 38.1068 310 40C310 49.8279 312.52 63.7508 309.005 73C305.643 81.8508 295.825 87.8447 293.43 97C291.203 105.513 293.867 115.287 292.891 124C292.374 128.62 287.118 134.939 282.742 129.681C279.777 126.119 281 119.297 281 115C281 108.132 279.248 98.3614 282.14 92C285.79 83.9713 294.291 78.3475 297.272 70C300.291 61.5487 298 48.9325 298 40C279.488 39.0376 277.287 8.70233 292 1L292 0L140 0L140 1C152.906 10.3153 151.984 39.0131 133 40C133 48.0712 130.38 61.7051 134.028 69C138.204 77.3528 148.11 82.489 153.566 90C158.004 96.109 158.75 122.233 154.821 128.852C151.308 134.771 145.346 129.849 144.344 124.999C142.52 116.165 146.525 105.486 143.397 97C139.879 87.4589 127.534 83.0114 123.028 74C118.844 65.632 122 49.2913 122 40C103.016 39.0131 102.094 10.3154 115 1L80 0L0 0z"/>
<path style="fill:#568fe8; stroke:none;" d="M111 3L119 13L120 10C124.101 11.2122 132.363 9.40829 134.972 13.3179C138.925 19.2421 131.919 31.9924 141.986 34.6543C150.04 36.7839 148.337 16.1283 147.815 12C145.876 -3.3222 121.385 -3.30988 111 3z"/>
<path style="fill:#2cb2e3; stroke:none;" d="M298 40C298 52.2616 292.981 73.9243 306 80L310 40C325.352 39.2019 329.677 14.5699 320.606 4.1088C315.279 -2.03412 304.349 -0.203369 297 0.0154419C276.668 0.62085 277.455 39.5169 298 40M379 40C379 47.9511 381.437 60.7451 377.987 68C373.539 77.3533 363.016 82.4268 357.603 91C353.869 96.9151 353.552 122.784 357.318 128.772C359.68 132.527 365.391 132.463 366.682 127.891C369.307 118.596 365.292 106.98 368.603 98C372.121 88.459 384.466 84.0114 388.972 75C393.263 66.418 390 49.5348 390 40C405.962 39.6247 411.031 15.2865 401.581 4.1088C396.307 -2.12878 385.326 -0.0983887 378 0.00384521C357.618 0.288269 358.143 39.5096 379 40z"/>
<path style="fill:#7276ec; stroke:none;" d="M113 1L114 2L113 1M141 1L142 2L141 1M110 4C104.092 16.6599 103.796 39.572 122 40C122 49.5348 118.737 66.418 123.028 75C127.533 84.0114 139.879 88.459 143.397 98C146.528 106.492 142.498 117.16 144.344 125.995C145.284 130.492 151.416 134.781 154.821 129.682C156.723 126.834 156 122.241 156 119C156.001 110.523 158.758 96.1468 153.566 89C148.11 81.4891 138.204 76.3528 134.028 68C130.488 60.9206 133 47.8265 133 40L144 37L144 36L136 28C132.011 28.9498 123.906 30.6997 120.603 27.3966C117.661 24.4538 119.445 18.6969 118.772 15C117.874 10.0746 113.871 6.7348 110 4z"/>
<path style="fill:#568fe8; stroke:none;" d="M109 5L110 6L109 5z"/>
<path style="fill:#7276ec; stroke:none;" d="M120 10L121 11L120 10z"/>
<path style="fill:#010101; stroke:none;" d="M120.603 12.0278C111.619 19.1432 124.05 36.167 134.397 27.9722C143.381 20.8568 130.95 3.83304 120.603 12.0278z"/>
<path style="fill:#568fe8; stroke:none;" d="M283 11L284 12L283 11z"/>
<path style="fill:#010101; stroke:none;" d="M296.603 12.0278C287.634 19.1317 300.137 36.0978 310.397 27.9722C319.381 20.8568 306.95 3.83304 296.603 12.0278M377.603 12.0278C368.619 19.1432 381.05 36.167 391.397 27.9722C400.381 20.8568 387.95 3.83304 377.603 12.0278z"/>
<path style="fill:#7276ec; stroke:none;" d="M145 34L146 35L145 34M144 35L145 36L144 35z"/>
<path style="fill:#568fe8; stroke:none;" d="M236 65L236 66C219.82 77.9088 202.521 101.868 224 117L225.858 97L244 74C255.112 81.3345 272.512 70.9482 273.89 58C274.819 49.2802 267.169 42.1485 260.572 37.4028C246.679 27.4082 222.43 53.0252 236 65M286 35L287 36L286 35z"/>
<path style="fill:#2cb2e3; stroke:none;" d="M259 36L260 37L259 36z"/>
<path style="fill:#568fe8; stroke:none;" d="M142 37L143 38L142 37M190 93L191 93L191 78C207.188 77.6087 211.612 48.0029 198.957 40.0092C187.661 32.8742 155.716 38.9141 165.032 58C171.753 71.7705 189.987 75.9305 190 93z"/>
<path style="fill:#2cb2e3; stroke:none;" d="M261 38L262 39L261 38M198 39L199 40L198 39M169 40L170 41L169 40z"/>
<path style="fill:#7276ec; stroke:none;" d="M167 42L168 43L167 42z"/>
<path style="fill:#2cb2e3; stroke:none;" d="M266 43L267 44L266 43M252 46L253 47L252 46z"/>
<path style="fill:#010101; stroke:none;" d="M251.001 48.1759C241.468 51.4824 245.245 66.8464 254 63.8241C264.031 60.3611 259.89 45.0929 251.001 48.1759z"/>
<path style="fill:#2cb2e3; stroke:none;" d="M270 47L271 48L270 47M177 49L178 50L177 49z"/>
<path style="fill:#010101; stroke:none;" d="M178.318 49.7423C174.848 51.5111 174.827 62.6181 177.028 65.3966C179.097 68.0088 187.933 67.7496 190.682 66.3966C194.164 64.6831 194.155 53.359 191.972 50.6034C189.843 47.9152 181.103 48.3225 178.318 49.7423z"/>
<path style="fill:#7276ec; stroke:none;" d="M164.333 50.6667L164.667 51.3333L164.333 50.6667z"/>
<path style="fill:#2cb2e3; stroke:none;" d="M243.333 55.6667L243.667 56.3333L243.333 55.6667M330 86C330 99.1907 329.153 107.654 341 116L341 86C351.474 83.8853 355.19 67.2825 348.486 59.2137C344.387 54.2803 336.817 54.5866 331 55.0941C315.875 56.4139 315.265 83.8467 330 86z"/>
<path style="fill:#7276ec; stroke:none;" d="M164 58C164.089 68.8102 166.708 77.711 179 78L179 119C179 123.333 177.862 131.334 184.039 131.793C193.681 132.511 191 115.805 191 110C191 101.997 192.22 91.6238 189.397 84C186.071 75.0204 171.71 63.4309 164 58z"/>
<path style="fill:#568fe8; stroke:none;" d="M309 58L309 72L310 72L309 58M164 65L165 66L164 65z"/>
<path style="fill:#7276ec; stroke:none;" d="M252 65L253 66L252 65z"/>
<path style="fill:#2cb2e3; stroke:none;" d="M253 65L254 66L253 65z"/>
<path style="fill:#7276ec; stroke:none;" d="M176 66L177 67L176 66M192 66L193 67L192 66z"/>
<path style="fill:#010101; stroke:none;" d="M331 67L331 75L339 75L339 67L331 67z"/>
<path style="fill:#568fe8; stroke:none;" d="M297 70L298 71L297 70z"/>
<path style="fill:#2cb2e3; stroke:none;" d="M230 71L231 72L230 71z"/>
<path style="fill:#568fe8; stroke:none;" d="M296 72C291.41 78.3848 283.77 85.359 281.513 93C279.579 99.5482 281 108.207 281 115C281 119.755 279.805 136.904 289.772 130.968C296.819 126.771 292.352 107.068 293.108 100C293.874 92.8375 300.477 86.2267 305 81L305 80L296 72z"/>
<path style="fill:#2cb2e3; stroke:none;" d="M294 74L295 75L294 74z"/>
<path style="fill:#568fe8; stroke:none;" d="M373 74L374 75L373 74M372 75L373 76L372 75M371 76L372 77L371 76M306 77L307 78L306 77M370 77L371 78L370 77z"/>
<path style="fill:#2cb2e3; stroke:none;" d="M291 78L292 79L291 78z"/>
<path style="fill:#568fe8; stroke:none;" d="M305 78L306 79L305 78M369 78L370 79L369 78M320 79L321 80L320 79M368 79L369 80L368 79M367 80L368 81L367 80M366 81L367 82L366 81M365 82L366 83L365 82z"/>
<path style="fill:#7276ec; stroke:none;" d="M302 83L303 84L302 83z"/>
<path style="fill:#568fe8; stroke:none;" d="M323 83L324 84L323 83M364 83L365 84L364 83z"/>
<path style="fill:#2cb2e3; stroke:none;" d="M219 84L220 85L219 84z"/>
<path style="fill:#568fe8; stroke:none;" d="M363 84L364 85L363 84M362 85L363 86L362 85z"/>
<path style="fill:#7276ec; stroke:none;" d="M285 86L286 87L285 86z"/>
<path style="fill:#568fe8; stroke:none;" d="M361 86L362 87L361 86z"/>
<path style="fill:#2cb2e3; stroke:none;" d="M299 87L300 88L299 87z"/>
<path style="fill:#568fe8; stroke:none;" d="M360 87L361 88L360 87M359 88L360 89L359 88M358 89L359 90L358 89z"/>
<path style="fill:#7276ec; stroke:none;" d="M214 90L215 91L214 90z"/>
<path style="fill:#568fe8; stroke:none;" d="M259.228 91.0316C253.155 94.6485 254.644 120.72 256.434 126.981C257.478 130.633 261.238 133.031 264.852 130.968C268.097 129.115 267.977 125.257 267.999 122C268.057 113.651 270.029 102.105 267.566 94.1088C266.496 90.6339 262.386 89.1508 259.228 91.0316z"/>
<path style="fill:#2cb2e3; stroke:none;" d="M265 90L266 91L265 90M282 90L283 91L282 90z"/>
<path style="fill:#568fe8; stroke:none;" d="M357 90L358 91L357 90z"/>
<path style="fill:#2cb2e3; stroke:none;" d="M296 91L297 92L296 91z"/>
<path style="fill:#7276ec; stroke:none;" d="M227 93L228 94L227 93M213 96C213 105.067 210.226 119.539 213.742 127.941C215.56 132.285 221.462 133.089 223.972 128.852C226.122 125.222 225 119.072 225 115L224 115L223 117L214.603 106L213 96z"/>
<path style="fill:#568fe8; stroke:none;" d="M330 106C330 111.635 327.402 126.206 331.603 130.397C338.382 137.158 341.169 125.515 340.981 121C340.699 114.217 335.207 109.668 330 106z"/>
<path style="fill:#b43ef5; stroke:none;" d="M40 133C47.8265 133 60.9207 130.488 68 134.028C81.8751 140.965 84.5901 155.998 102 156L80 133L68 122.603L40 122C39.2757 106.188 15.3905 100.881 4.1088 110.419C-2.17475 115.731 -0.266858 127.578 0.0185185 135C0.770006 154.544 39.5217 153.343 40 133z"/>
<path style="fill:#2cb2e3; stroke:none;" d="M472 122C462.465 122 445.582 118.737 437 123.028C427.989 127.533 423.541 139.879 414 143.397C405.084 146.684 394.139 141.838 385.019 144.573C380.125 146.04 378.327 152.187 383.344 154.91C389.67 158.345 414.959 158.21 421 154.397C429.512 149.023 434.806 138.515 444 134.024C451.164 130.524 464.112 133 472 133C472.375 148.962 496.714 154.031 507.891 144.581C514.129 139.307 512.098 128.326 511.996 121C511.712 100.618 472.49 101.143 472 122z"/>
<path style="fill:#7276ec; stroke:none;" d="M34 109L35 110L34 109M39 116L40 117L39 116z"/>
<path style="fill:#568fe8; stroke:none;" d="M367 116L367 127L368 127L367 116z"/>
<path style="fill:#010101; stroke:none;" d="M12.6034 120.028C2.99544 127.637 17.6434 142.751 27.2577 134.972C36.9745 127.111 22.2103 112.419 12.6034 120.028M484.603 120.028C474.982 127.648 489.748 142.614 499.397 134.972C509.093 127.292 494.289 112.357 484.603 120.028z"/>
<path style="fill:#7276ec; stroke:none;" d="M69 122C75.2711 130.903 84.3074 138.308 92 146C95.4161 149.416 99.1023 154.454 104 155.682C109.982 157.182 122.028 157.338 127.941 155.566C132.216 154.286 133.207 148.659 129.682 145.858C120.58 138.624 105.001 149.423 96 142.682C87.2945 136.162 80.8106 122.383 69 122z"/>
<path style="fill:#568fe8; stroke:none;" d="M356 128L357 129L356 128M357.333 129.667L357.667 130.333L357.333 129.667z"/>
<path style="fill:#7276ec; stroke:none;" d="M266 130L267 131L266 130z"/>
<path style="fill:#2cb2e3; stroke:none;" d="M283 131L284 132L283 131z"/>
<path style="fill:#568fe8; stroke:none;" d="M358.667 131.333L359.333 131.667L358.667 131.333M364 131L365 132L364 131M436 139L437 140L436 139z"/>
<path style="fill:#7276ec; stroke:none;" d="M1 141L2 142L1 141z"/>
<path style="fill:#568fe8; stroke:none;" d="M434 141L435 142L434 141M432 143L433 144L432 143z"/>
<path style="fill:#b43ef5; stroke:none;" d="M97 144L97 145L106 145L97 144z"/>
<path style="fill:#7276ec; stroke:none;" d="M154 207C156.484 193.621 150.187 173.461 158.649 162.043C165.239 153.151 177.315 155 187 155L261 155C258.275 151.132 254.605 146.301 250 144.603C244.076 142.419 235.262 144 229 144L182 144C172.749 144 163.016 142.644 155.015 148.224C138.895 159.464 138.352 195.976 154 207z"/>
<path style="fill:#568fe8; stroke:none;" d="M251 144C253.725 147.868 257.395 152.699 262 154.397C267.667 156.486 276.014 155 282 155L326 155C333.177 155 341.465 153.817 347.996 157.417C358.322 163.11 357 174.956 357 185L357 256L358 256L358 252L368 261L368 185C368 172.885 369.887 160.766 360.56 151.44C351.234 142.113 339.115 144 327 144L251 144M431 144L432 145L431 144M430 145L431 146L430 145M429 146L430 147L429 146M428 147L429 148L428 147M427 148L428 149L427 148z"/>
<path style="fill:#b43ef5; stroke:none;" d="M153 149L154 150L153 149z"/>
<path style="fill:#2cb2e3; stroke:none;" d="M358 149L359 150L358 149z"/>
<path style="fill:#568fe8; stroke:none;" d="M426 149L427 150L426 149z"/>
<path style="fill:#2cb2e3; stroke:none;" d="M359 150L360 151L359 150z"/>
<path style="fill:#568fe8; stroke:none;" d="M425 150L426 151L425 150M424 151L425 152L424 151z"/>
<path style="fill:#2cb2e3; stroke:none;" d="M361 152L362 153L361 152z"/>
<path style="fill:#568fe8; stroke:none;" d="M423 152L424 153L423 152z"/>
<path style="fill:#b43ef5; stroke:none;" d="M149 153L150 154L149 153z"/>
<path style="fill:#2cb2e3; stroke:none;" d="M362 153L363 154L362 153z"/>
<path style="fill:#568fe8; stroke:none;" d="M380 153L382 155L382 153L380 153M422 153L423 154L422 153M421 154L422 155L421 154z"/>
<path style="fill:#010101; stroke:none;" d="M168 155.529C150.055 159.678 155 184.295 155 198L155 306C155 318.3 150.987 339.301 157.995 349.957C165.82 361.857 190.758 357 203 357L299 357C313.07 357 331.459 360.126 345 356.211C361.858 351.336 357 327.381 357 314L357 204C357 192.1 361.047 171.029 353.351 161.105C344.913 150.224 320.172 155 308 155L214 155C199.588 155 182.049 152.282 168 155.529z"/>
<path style="fill:#568fe8; stroke:none;" d="M383 155L384 156L383 155z"/>
<path style="fill:#b43ef5; stroke:none;" d="M86 182L118 182C123.132 182 128.199 182.881 132 179L116 171.318L86 171C83.8853 160.526 67.2824 156.81 59.2137 163.514C54.2804 167.613 54.5866 175.183 55.0941 181C56.4116 196.098 84.0228 196.781 86 182z"/>
<path style="fill:#2cb2e3; stroke:none;" d="M434 179L404 179L414 190L407 190L407 191L434 191C434.495 211.49 473.712 210.955 473.996 190C474.091 183.009 475.88 172.653 469.786 167.652C458.592 158.464 434.386 162.941 434 179z"/>
<path style="fill:#568fe8; stroke:none;" d="M436 169L437 170L436 169z"/>
<path style="fill:#7276ec; stroke:none;" d="M118 171C120.114 174 124.507 180.686 128.852 180.079C133.264 179.462 131.942 173.141 128.852 171.742C125.719 170.324 121.357 171 118 171z"/>
<path style="fill:#010101; stroke:none;" d="M67 173L67 181L75 181L75 173L67 173M446.603 177.028C436.907 184.708 451.711 199.643 461.397 191.972C471.018 184.352 456.252 169.386 446.603 177.028z"/>
<path style="fill:#568fe8; stroke:none;" d="M414 190C408.68 182.448 390.769 171.742 381.603 180.742C371.71 190.458 395.102 191.006 399 191C404.05 190.992 408.967 190.104 414 190z"/>
<path style="fill:#b43ef5; stroke:none;" d="M40 214C48.6544 214 60.8086 211.802 69 214.728C77.3077 217.695 83.0725 226.079 91 229.836C97.4937 232.913 107.94 231 115 231C119.111 231 126.003 232.275 129.566 229.821C134.531 226.402 130.69 220.1 125.995 219.228C116.937 217.546 106.939 220.909 98 218.57C89.2642 216.285 83.2602 207.1 75 203.533C65.2678 199.331 50.4588 202 40 202C39.2019 186.648 14.5699 182.323 4.1088 191.394C-2.03416 196.721 -0.203356 207.651 0.0154321 215C0.624199 235.448 39.5079 234.452 40 214z"/>
<path style="fill:#2cb2e3; stroke:none;" d="M384 190L385 191L384 190z"/>
<path style="fill:#7276ec; stroke:none;" d="M79 191L80 192L79 191z"/>
<path style="fill:#b43ef5; stroke:none;" d="M144 198L144 315C144 329.403 140.007 349.636 151.185 360.815C162.364 371.993 182.597 368 197 368L314 368C303.652 353.31 288.077 357 272 357L197 357C187.05 357 172.995 359.539 164.004 354.583C151.173 347.509 155 328.19 155 316L155 204L154 204L154 207L144 198z"/>
<path style="fill:#7276ec; stroke:none;" d="M265 267C265 279.628 264.471 292.384 265.019 304.999C265.212 309.423 268.544 314.791 273.682 311.667C276.769 309.79 275.999 305.052 276 302L276 276C276 245.862 281.42 199.569 238 199.019C206.183 198.615 184.581 240.647 209 262.941C214.561 268.019 220.947 267 228 267L265 267z"/>
<path style="fill:#568fe8; stroke:none;" d="M305 199L306 200L305 199z"/>
<path style="fill:#7276ec; stroke:none;" d="M313 203L312 203L311 205L309 200C297.399 196.585 301 221.709 301 228L301 286C301 292.39 298.751 304.176 302.179 309.772C304.951 314.296 311.387 312.798 312.682 307.956C315.356 297.96 313 284.349 313 274L313 245C313 231.121 311.994 216.825 313 203z"/>
<path style="fill:#2cb2e3; stroke:none;" d="M309 199L310 200L309 199z"/>
<path style="fill:#010101; stroke:none;" d="M12.6034 201.028C2.99543 208.637 17.6434 223.751 27.2577 215.972C37.0494 208.05 22.2474 193.39 12.6034 201.028z"/>
<path style="fill:#568fe8; stroke:none;" d="M307 200L312 205C311.836 201.358 310.526 200.564 307 200M302 201L303 202L302 201M312 205L313 206L312 205z"/>
<path style="fill:#b43ef5; stroke:none;" d="M213 207L214 208L213 207z"/>
<path style="fill:#010101; stroke:none;" d="M211 256L265 256C265 245.278 266.872 232.321 260.351 223C248.726 206.383 222.476 207.127 213.403 226C209.162 234.821 211 246.482 211 256z"/>
<path style="fill:#2cb2e3; stroke:none;" d="M384 213L385 214L384 213z"/>
<path style="fill:#568fe8; stroke:none;" d="M438 243C431.393 256.145 441.913 275.603 458 273.89C464.659 273.181 471.9 265.451 475.258 260C481.495 249.873 456.516 225.226 447 236C439.356 228.959 429.077 216.808 419 213.653C413.279 211.861 405.941 213 400 213C395.005 213 377.056 211.007 380.623 220.942C383.912 230.103 407.501 222.834 415 225.858C423.85 229.426 429.3 239.015 438 243z"/>
<path style="fill:#7276ec; stroke:none;" d="M421 214L422 215L421 214z"/>
<path style="fill:#b43ef5; stroke:none;" d="M203 219L204 220L203 219z"/>
<path style="fill:#2cb2e3; stroke:none;" d="M427 219L428 220L427 219M381 223L382 224L381 223z"/>
<path style="fill:#7276ec; stroke:none;" d="M86 226L87 227L86 226M418 227L419 228L418 227z"/>
<path style="fill:#2cb2e3; stroke:none;" d="M440 230L441 231L440 230M441 231L442 232L441 231M424 232L425 233L424 232M455 232L455 233L477 252C474.861 242.15 465.222 232.475 455 232z"/>
<path style="fill:#568fe8; stroke:none;" d="M460 232L461 233L460 232z"/>
<path style="fill:#b43ef5; stroke:none;" d="M65 276L66 276C76.8726 291.116 91.0154 299 109 299C114.31 299 136.255 301.462 131.253 290.228C127.755 282.372 105.068 288.732 98 286.436C88.9811 283.506 81.7518 273.3 74 268C81.2007 257.091 71.5073 240.487 59 238.228C49.8498 236.576 42.4092 244.151 37.4336 251C27.2548 265.011 52.8919 289.721 65 276z"/>
<path style="fill:#7276ec; stroke:none;" d="M431 238L432 239L431 238z"/>
<path style="fill:#2cb2e3; stroke:none;" d="M437 243L438 244L437 243M455.667 243.333L456.333 243.667L455.667 243.333z"/>
<path style="fill:#b43ef5; stroke:none;" d="M93.1481 244.742C87.8263 247.15 90.3203 254.223 95.0193 255.566C101.854 257.52 122.698 258.466 128.852 254.821C132.996 252.366 132.626 245.892 127.891 244.434C120.744 242.233 99.9678 241.657 93.1481 244.742z"/>
<path style="fill:#010101; stroke:none;" d="M454.001 245.086C444.06 249.22 450.054 264.055 457.999 260.248C467.091 255.893 462.968 241.358 454.001 245.086z"/>
<path style="fill:#568fe8; stroke:none;" d="M475.333 246.667L475.667 247.333L475.333 246.667M476 248L477 249L476 248z"/>
<path style="fill:#010101; stroke:none;" d="M55 251.346C45.2236 253.788 47.3754 269.304 57 267.248C67.3384 265.04 63.9011 249.122 55 251.346z"/>
<path style="fill:#7276ec; stroke:none;" d="M358 252C355.026 275.532 357 300.276 357 324C357 333.903 359.066 346.6 349.957 353.351C339.208 361.317 316.771 357 304 357C315.335 373.092 351.919 373.991 363.776 356.985C369.196 349.212 368 339.991 368 331L368 282C368 269.27 369.505 260.105 358 252M446 252L447 253L446 252z"/>
<path style="fill:#2cb2e3; stroke:none;" d="M465.333 252.667L465.667 253.333L465.333 252.667z"/>
<path style="fill:#b43ef5; stroke:none;" d="M199 253C199 269.99 198.686 287.013 199.005 304C199.103 309.213 203.914 316.83 209.258 310.566C211.939 307.424 211 301.814 211 298C211 288.577 208.332 274.394 213 266L199 253z"/>
<path style="fill:#2cb2e3; stroke:none;" d="M446 253L447 254L446 253z"/>
<path style="fill:#568fe8; stroke:none;" d="M384.059 256.742C379.801 258.524 378.578 265.085 383.228 267.258C390.001 270.422 402.592 268.003 410 268C412.944 267.999 416.996 268.591 419.566 266.821C423.95 263.802 421.328 257.677 416.981 256.434C409.753 254.367 391.004 253.836 384.059 256.742z"/>
<path style="fill:#2cb2e3; stroke:none;" d="M421 265L422 266L421 265z"/>
<path style="fill:#7276ec; stroke:none;" d="M406 293L406 292C401.124 291.942 390.099 288.243 391 282C385.159 279.555 375.428 285.559 382.318 291.258C387.3 295.378 399.858 293 406 293z"/>
<path style="fill:#568fe8; stroke:none;" d="M389 282C397.319 293.808 404.925 289.104 416 294.14C423.985 297.77 429.797 305.443 438 308.775C447.457 312.617 461.891 310 472 310C472.785 325.095 496.056 329.329 506.956 321.347C513.982 316.202 512.187 305.69 511.985 298C511.436 277.021 472.506 276.985 472 298C463.346 298 451.191 300.198 443 297.272C434.76 294.33 428.854 286.13 421 282.303C413.381 278.591 397.086 280.075 389 282M381 282L382 283L381 282z"/>
<path style="fill:#2cb2e3; stroke:none;" d="M421 282L422 283L421 282z"/>
<path style="fill:#7276ec; stroke:none;" d="M500 283L501 284L500 283z"/>
<path style="fill:#2cb2e3; stroke:none;" d="M504 284L505 285L504 284z"/>
<path style="fill:#7276ec; stroke:none;" d="M425 285L426 286L425 285z"/>
<path style="fill:#2cb2e3; stroke:none;" d="M506 285L507 286L506 285M507 286L508 287L507 286M508 287L509 288L508 287M474 288L475 289L474 288M511 292L512 293L511 292z"/>
<path style="fill:#010101; stroke:none;" d="M484.742 296.028C474.951 303.95 489.753 318.61 499.397 310.972C509.005 303.363 494.357 288.249 484.742 296.028z"/>
<path style="fill:#2cb2e3; stroke:none;" d="M428 302L429 303L428 302M432 305L433 306L432 305z"/>
<path style="fill:#b43ef5; stroke:none;" d="M78 333L119 333C123.026 333 130.427 334.154 131.663 328.892C133.28 322.01 125.866 321.026 121 321.001C106.668 320.925 92.3327 321 78 321C77.6333 305.829 53.8429 301.645 43.0548 309.653C36.0765 314.832 37.9002 325.359 38.0039 333C38.2891 354.026 77.5041 354.093 78 333z"/>
<path style="fill:#7276ec; stroke:none;" d="M435 307L436 308L435 307z"/>
<path style="fill:#b43ef5; stroke:none;" d="M268 312L269 313L268 312M272 312L273 313L272 312M309 312L310 313L309 312z"/>
<path style="fill:#010101; stroke:none;" d="M50.6034 320.028C40.9822 327.648 55.7481 342.614 65.3966 334.972C75.0934 327.292 60.2888 312.357 50.6034 320.028z"/>
<path style="fill:#568fe8; stroke:none;" d="M428 323L428 324L445 331C445.321 338.351 448.137 343.797 455 347C462.078 327.578 447.306 311.27 428 323z"/>
<path style="fill:#2cb2e3; stroke:none;" d="M430 321L431 322L430 321z"/>
<path style="fill:#7276ec; stroke:none;" d="M429 323L426 330L391 330C386.839 330.002 380.627 329.327 380.207 335.004C379.775 340.837 385.754 340.977 390 340.999C401.999 341.062 414.001 341 426 341C428.525 353.505 444.954 353.067 454 348L446 336L445 336L445 339L437 340C436.999 332.103 435.733 327.76 429 323z"/>
<path style="fill:#2cb2e3; stroke:none;" d="M427 324L428 325L427 324z"/>
<path style="fill:#7276ec; stroke:none;" d="M455 325L456 326L455 325z"/>
<path style="fill:#2cb2e3; stroke:none;" d="M426 326L427 327L426 326z"/>
<path style="fill:#010101; stroke:none;" d="M437 331L437 339L445 339L445 331L437 331z"/>
<path style="fill:#568fe8; stroke:none;" d="M437 339L437 340L440 340L437 339z"/>
<path style="fill:#b43ef5; stroke:none;" d="M40 379C39.5097 358.143 0.288252 357.618 0.00385802 378C-0.0983596 385.326 -2.12878 396.307 4.1088 401.581C15.2865 411.031 39.6247 405.962 40 390C49.5348 390 66.418 393.263 75 388.972C84.0114 384.466 88.4589 372.121 98 368.603C106.492 365.472 117.16 369.502 125.995 367.656C130.492 366.716 134.781 360.584 129.682 357.179C126.834 355.277 122.241 356 119 356C110.523 355.999 96.1468 353.242 89 358.434C81.4891 363.89 76.3528 373.796 68 377.972C60.9206 381.512 47.8265 379 40 379z"/>
<path style="fill:#7276ec; stroke:none;" d="M472 390C472.317 403.183 481.89 405.004 493 405C496.273 404.999 504.325 405.942 505.654 401.721C506.741 398.273 501.648 394.756 499 393.742C494.78 392.127 488.005 394.798 484.603 391.397C481.41 388.203 483.677 381.974 482.682 378C481.746 374.261 478.603 371.634 476 369L475 369L472 379C464.173 379 451.079 381.512 444 377.972C435.647 373.796 430.511 363.89 423 358.434C415.853 353.242 401.477 355.999 393 356C389.759 356 385.166 355.277 382.318 357.179C377.219 360.584 381.508 366.716 386.005 367.656C394.84 369.502 405.508 365.472 414 368.603C423.541 372.121 427.989 384.466 437 388.972C445.582 393.263 462.465 390 472 390z"/>
<path style="fill:#b43ef5; stroke:none;" d="M362 358L363 359L362 358M358 362L359 363L358 362z"/>
<path style="fill:#7276ec; stroke:none;" d="M482 364L483 365L482 364z"/>
<path style="fill:#568fe8; stroke:none;" d="M475 368L475 369C485.634 379.589 508.335 371.97 499 394L508 402C512.793 394.633 515.426 376.62 509.427 369.108C502.583 360.537 483.11 362.58 475 368M474 369L475 370L474 369z"/>
<path style="fill:#7276ec; stroke:none;" d="M510 370L511 371L510 370z"/>
<path style="fill:#568fe8; stroke:none;" d="M472 373L473 374L472 373z"/>
<path style="fill:#010101; stroke:none;" d="M12.6034 377.028C2.99543 384.637 17.6434 399.751 27.2577 391.972C36.9745 384.111 22.2104 369.419 12.6034 377.028M484.603 377.028C474.907 384.708 489.711 399.643 499.397 391.972C509.093 384.292 494.289 369.357 484.603 377.028z"/>
<path style="fill:#b43ef5; stroke:none;" d="M122 472C106.038 472.375 100.969 496.714 110.419 507.891C115.693 514.129 126.674 512.098 134 511.996C154.382 511.712 153.857 472.49 133 472C133 464.173 130.488 451.079 134.028 444C138.204 435.647 148.11 430.511 153.566 423C158.758 415.853 156.001 401.477 156 393C156 389.759 156.723 385.166 154.821 382.318C151.416 377.219 145.284 381.508 144.344 386.005C142.498 394.84 146.528 405.508 143.397 414C139.879 423.541 127.534 427.989 123.028 437C118.737 445.582 122 462.465 122 472M171 426C160.526 428.115 156.81 444.718 163.514 452.786C167.613 457.72 175.183 457.413 181 456.906C196.097 455.588 196.859 427.987 182 426L182 391C181.998 386.507 182.462 379.736 176.015 380.207C170.329 380.622 171.002 386.832 171 391L171 426M202 472C186.648 472.798 182.323 497.43 191.394 507.891C196.721 514.034 207.651 512.203 215 511.985C235.428 511.376 234.563 472.483 214 472C214 463.346 211.802 451.191 214.728 443C217.709 434.652 226.21 429.029 229.86 421C232.859 414.404 231 404.127 231 397C231 392.821 232.471 384.875 229.258 381.603C224.343 376.599 219.337 383.332 219.044 388C218.52 396.357 221.113 407.045 218.272 415C215.066 423.979 205.444 429.732 202.649 439C199.73 448.678 202 461.92 202 472M247.228 380.747C243.674 382.329 244.018 386.755 244.001 390C243.969 396 240.245 426.008 251.892 421.392C258.923 418.605 257.387 391.387 255.566 385.019C254.53 381.396 250.903 379.112 247.228 380.747M268 438L267 438C257.513 429.111 241.182 441.938 238.434 452C235.967 461.03 242.854 467.432 249 472.891C263.627 485.885 290.424 459.729 276 447C283.196 439.653 295.234 428.982 298.347 419C300.047 413.551 299 406.653 299 401C299 395.736 301.2 376.044 290.228 380.758C282.491 384.082 288.569 407.061 286.486 414C283.796 422.961 273.24 430.336 268 438z"/>
<path style="fill:#7276ec; stroke:none;" d="M295 380L296 381L295 380M324 380L325 381L324 380z"/>
<path style="fill:#b43ef5; stroke:none;" d="M321 434C305.829 434.367 301.645 458.157 309.653 468.945C314.833 475.923 325.359 474.1 333 473.996C354.058 473.71 354.004 434.494 333 434C333 417.192 337.247 394.509 328 380C320.731 381.482 321.021 387.709 321.001 394.001C320.957 407.334 321 420.667 321 434z"/>
<path style="fill:#7276ec; stroke:none;" d="M326 380L327 381L326 380M328 380L332 388L333 388L331 380L328 380M390 443C389.606 430.842 375.551 425.421 369.603 416C363.714 406.671 373.077 391.045 366.142 382.318C363.341 378.793 357.714 379.784 356.434 384.059C354.662 389.972 354.818 402.018 356.318 408C357.546 412.898 362.584 416.584 366 420C373.692 427.693 381.097 436.729 390 443z"/>
<path style="fill:#b43ef5; stroke:none;" d="M331 381L332 382L331 381z"/>
<path style="fill:#7276ec; stroke:none;" d="M321 384L322 385L321 384M321 386L322 387L321 386M511 396L512 397L511 396M510 398L511 399L510 398z"/>
<path style="fill:#568fe8; stroke:none;" d="M474 399L475 400L474 399z"/>
<path style="fill:#7276ec; stroke:none;" d="M509 399L510 400L509 399z"/>
<path style="fill:#568fe8; stroke:none;" d="M506 402L507 403L506 402z"/>
<path style="fill:#b43ef5; stroke:none;" d="M356 410C356.002 427.41 371.035 430.125 377.972 444C381.512 451.079 379 464.173 379 472C363.399 472.367 358.223 495.361 366.703 506.895C371.839 513.88 382.419 512.099 390 511.996C411.349 511.706 411.15 472.497 390 472L389.397 444L379 432L356 410z"/>
<path style="fill:#7276ec; stroke:none;" d="M284 418L285 419L284 418M297 421L298 422L297 421z"/>
<path style="fill:#010101; stroke:none;" d="M173 437L173 445L181 445L181 437L173 437z"/>
<path style="fill:#7276ec; stroke:none;" d="M346 441L347 442L346 441z"/>
<path style="fill:#010101; stroke:none;" d="M320.603 446.028C311.624 453.14 323.94 470.103 334.397 461.821C343.382 454.704 330.866 437.9 320.603 446.028M258 448.176C247.969 451.639 252.111 466.907 260.999 463.824C270.532 460.518 266.755 445.154 258 448.176z"/>
<path style="fill:#7276ec; stroke:none;" d="M404 482L405 483L404 482z"/>
<path style="fill:#010101; stroke:none;" d="M120.603 484.028C111.619 491.143 124.05 508.167 134.397 499.972C143.381 492.857 130.95 475.833 120.603 484.028M201.603 484.028C192.619 491.143 205.05 508.167 215.397 499.972C224.366 492.868 211.863 475.902 201.603 484.028M377.603 484.028C368.619 491.143 381.05 508.167 391.397 499.972C400.381 492.857 387.95 475.833 377.603 484.028z"/>
<path style="fill:#7276ec; stroke:none;" d="M370 510L371 511L370 510M398 510L399 511L398 510M372 511L373 512L372 511M396 511L397 512L396 511z"/>
</svg>
